<?xml version="1.0" standalone="no"?>
<!DOCTYPE svg PUBLIC "-//W3C//DTD SVG 20010904//EN"
 "http://www.w3.org/TR/2001/REC-SVG-20010904/DTD/svg10.dtd">
<svg version="1.0" xmlns="http://www.w3.org/2000/svg"
 width="1000.000000pt" height="1000.000000pt" viewBox="0 0 1000.000000 1000.000000"
 preserveAspectRatio="xMidYMid meet">

<g transform="translate(0.000000,1000.000000) scale(0.100000,-0.100000)"
fill="#000000" stroke="none">
<path d="M5565 8856 c-315 -103 -593 -269 -827 -495 -230 -221 -387 -453 -498
-736 -18 -44 -33 -82 -36 -84 -2 -2 -10 1 -18 8 -31 26 9 209 82 380 76 176
185 350 335 533 l68 83 -94 -96 c-313 -320 -543 -780 -621 -1244 -20 -116 -36
-333 -31 -410 2 -33 7 -98 9 -145 8 -129 42 -297 86 -432 40 -121 52 -204 28
-196 -41 14 -133 255 -172 450 -51 253 -59 550 -21 788 16 101 18 126 10 119
-2 -3 -14 -61 -25 -130 -27 -159 -38 -498 -21 -649 60 -515 248 -937 565
-1268 225 -233 505 -400 723 -430 75 -11 243 -77 251 -99 6 -19 -120 -17 -214
3 -411 84 -845 417 -1100 842 -26 45 -50 80 -52 78 -7 -7 103 -181 176 -279
94 -126 278 -311 394 -398 228 -170 477 -279 741 -325 118 -20 334 -20 449 0
158 29 300 89 374 160 81 78 54 97 -126 90 l-115 -4 87 19 c48 11 149 38 225
60 222 64 258 58 212 -36 -39 -80 -160 -183 -294 -250 -233 -117 -486 -150
-835 -109 -34 4 -29 2 20 -10 46 -11 121 -16 255 -17 161 -1 206 3 292 21 254
55 456 163 608 324 90 95 148 204 148 274 0 85 -34 84 -215 -1 -234 -111 -388
-152 -603 -161 -66 -3 -147 -1 -180 4 -53 8 -44 9 80 10 329 2 561 87 825 302
112 91 157 120 187 120 48 0 72 -85 53 -190 -14 -81 -82 -225 -143 -306 -100
-132 -272 -267 -430 -338 -39 -18 -83 -38 -97 -44 l-25 -12 25 6 c51 12 232
104 307 156 195 134 347 338 402 538 36 129 24 287 -26 342 -39 43 -101 11
-196 -102 -206 -243 -461 -370 -774 -384 -54 -2 -82 -3 -63 0 235 27 320 49
450 114 184 93 307 221 426 445 84 156 126 178 198 102 66 -68 91 -154 91
-302 -1 -143 -22 -231 -90 -371 -128 -265 -379 -478 -710 -601 -49 -19 -76
-31 -60 -28 62 13 233 87 319 137 277 164 462 393 548 678 29 97 36 288 13
383 -32 134 -106 247 -188 288 -81 42 -126 4 -176 -147 -43 -129 -99 -237
-157 -299 -39 -43 -41 -44 -16 -10 81 110 122 219 142 375 16 131 26 166 57
189 87 69 258 -42 344 -224 89 -187 92 -420 9 -648 -153 -417 -565 -733 -1073
-823 -51 -9 -166 -19 -257 -23 -159 -8 -161 -8 -52 -9 434 -6 828 140 1110
412 181 175 289 357 344 583 29 121 29 314 -1 428 -26 99 -76 203 -134 276
-138 173 -361 240 -477 143 -36 -31 -43 -9 -7 23 40 37 84 53 147 53 173 0
348 -128 446 -325 253 -514 -43 -1169 -671 -1483 -318 -159 -742 -203 -1148
-121 -250 50 -538 174 -770 330 -49 32 -85 54 -82 49 15 -24 232 -157 360
-221 438 -216 920 -274 1355 -164 553 140 973 549 1074 1047 21 101 21 305 0
406 -8 42 -30 114 -48 159 -18 45 -29 80 -25 77 16 -9 72 -171 90 -259 83
-401 -107 -865 -475 -1161 -316 -254 -705 -376 -1151 -361 -185 6 -321 27
-498 77 -614 173 -1171 634 -1541 1278 -26 45 -50 82 -53 82 -5 0 35 -72 105
-190 225 -376 561 -723 912 -941 110 -68 341 -179 455 -219 133 -46 296 -87
426 -105 132 -19 383 -21 515 -5 323 40 629 164 869 354 l60 47 -50 -46 c-70
-64 -192 -144 -314 -205 -760 -379 -1746 -176 -2462 509 -366 349 -630 755
-884 1358 -38 90 -70 161 -72 159 -2 -1 17 -56 42 -121 248 -640 550 -1113
940 -1469 377 -344 745 -533 1255 -645 45 -10 45 -10 -10 -4 -80 8 -300 65
-415 108 -136 49 -378 169 -502 248 -385 246 -726 599 -1012 1050 -112 176
-200 334 -386 692 -99 191 -235 417 -277 460 -15 15 27 -67 92 -180 32 -55
123 -231 203 -391 188 -377 279 -539 420 -749 197 -294 486 -607 729 -791 35
-26 68 -52 73 -57 21 -21 -22 8 -100 66 -341 256 -628 577 -942 1052 -290 438
-358 535 -449 640 -52 61 -152 176 -221 258 -115 135 -146 168 -127 135 44
-77 230 -342 344 -493 42 -55 101 -138 132 -185 371 -567 535 -803 632 -910
29 -33 29 -33 2 -10 -41 36 -197 223 -380 455 -86 110 -192 240 -234 288 -102
118 -476 440 -632 544 -64 42 -131 82 -142 83 -2 1 147 -151 330 -337 183
-186 370 -381 416 -433 71 -81 235 -283 270 -330 6 -8 -57 50 -139 130 -163
158 -181 172 -378 291 -152 92 -289 160 -369 184 -52 15 -300 65 -322 65 -14
0 16 -20 99 -65 255 -138 314 -176 550 -348 189 -138 317 -238 312 -243 -2 -2
-35 12 -73 31 -193 96 -342 134 -564 145 -370 18 -465 22 -460 16 3 -3 172
-68 375 -146 204 -77 420 -165 480 -195 l110 -54 -85 5 c-60 4 -203 -6 -492
-35 -224 -23 -415 -41 -423 -41 -8 0 -15 -4 -15 -8 0 -4 119 -35 265 -67 146
-33 265 -62 265 -65 0 -3 -119 -32 -265 -65 -146 -32 -265 -63 -265 -67 0 -4
7 -8 15 -8 8 0 199 -18 423 -41 289 -29 432 -39 492 -35 l85 5 -110 -54 c-60
-30 -276 -118 -480 -195 -203 -78 -372 -143 -375 -146 -5 -6 90 -2 460 16 218
11 314 35 557 139 40 17 75 31 80 31 10 0 -387 -295 -511 -378 -94 -64 -173
-111 -351 -207 -83 -45 -113 -65 -99 -65 22 0 270 50 322 65 118 35 233 98
676 374 99 61 183 111 188 111 5 0 -42 -43 -104 -96 -88 -75 -903 -885 -890
-884 30 1 222 135 362 253 69 58 203 170 298 251 171 143 363 292 433 334 53
32 144 52 229 51 l75 -2 -60 -7 c-131 -15 -197 -51 -333 -184 -201 -195 -430
-479 -639 -791 -126 -189 -124 -191 18 -22 307 364 583 646 766 784 152 114
351 116 752 9 52 -14 96 -28 100 -32 3 -4 -3 -4 -14 -1 -94 28 -290 59 -401
64 -249 11 -321 -27 -543 -284 -135 -156 -349 -470 -426 -624 -35 -69 -24 -58
60 66 126 185 258 345 435 529 182 189 259 227 460 227 142 0 258 -20 580 -96
208 -49 554 -116 693 -134 78 -11 126 -19 107 -20 -83 -2 -320 33 -680 100
-330 61 -438 76 -566 78 -173 3 -290 -35 -378 -124 -74 -74 -177 -204 -261
-330 -68 -104 -147 -239 -108 -185 272 369 401 504 523 551 51 19 194 39 247
34 15 -2 67 -6 115 -9 90 -7 148 -17 523 -85 473 -86 772 -112 1076 -93 317
21 553 67 808 161 47 17 86 29 88 27 14 -14 -330 -123 -487 -155 -228 -46
-302 -53 -580 -58 -298 -6 -459 5 -805 53 -400 55 -516 66 -645 61 -233 -10
-312 -53 -462 -253 -57 -75 -64 -96 -10 -27 67 84 163 172 216 198 124 61 322
68 631 25 325 -45 609 -80 740 -89 778 -58 1462 118 1994 514 115 85 209 166
339 289 l96 91 -64 -74 c-124 -141 -321 -307 -515 -434 -496 -324 -1119 -473
-1832 -438 -120 6 -344 22 -498 36 -163 15 -336 25 -415 23 -212 -2 -215 -13
-4 -14 125 -1 276 -10 449 -27 524 -54 837 -58 1162 -17 537 69 949 233 1453
578 191 131 256 160 298 133 17 -10 31 -70 22 -95 -5 -16 -7 -16 -19 -2 -20
24 -84 20 -142 -9 -27 -14 -133 -77 -234 -140 -299 -186 -497 -284 -762 -375
-335 -116 -658 -167 -1128 -180 l-290 -8 325 3 c214 3 366 9 445 19 404 52
737 147 1105 316 352 162 415 178 438 112 24 -69 -37 -223 -164 -413 -83 -124
-121 -159 -59 -54 70 118 96 183 102 251 5 59 4 63 -21 79 -38 25 -88 16 -268
-51 -550 -203 -838 -277 -1213 -313 -166 -17 -174 -18 -120 -19 69 -2 293 23
462 53 182 32 307 61 567 135 300 85 386 93 400 37 24 -98 -131 -321 -409
-588 -201 -192 -239 -215 -82 -49 144 153 233 267 277 354 36 72 38 99 5 131
-36 37 -102 33 -385 -25 -405 -83 -640 -117 -980 -140 l-135 -9 160 5 c195 6
478 34 746 74 196 30 328 38 380 25 58 -15 55 -87 -7 -177 -90 -129 -390 -389
-539 -465 -37 -19 -31 -13 70 68 128 102 248 230 286 304 32 61 33 66 19 92
-33 59 -98 63 -478 28 -150 -14 -424 -34 -610 -45 -350 -21 -576 -40 -568 -47
2 -3 69 0 148 6 79 6 242 13 363 16 121 3 240 8 265 10 25 3 150 5 277 6 212
0 236 -1 277 -20 40 -17 46 -24 46 -49 0 -48 -62 -116 -163 -178 -32 -20 -60
-34 -63 -31 -3 2 7 22 21 43 31 45 29 70 -5 95 -46 35 -130 42 -405 36 -592
-14 -862 -70 -986 -204 -51 -55 -158 -247 -145 -260 2 -2 18 22 36 54 97 172
184 240 369 285 115 29 375 32 434 6 24 -11 37 -24 37 -36 0 -28 -47 -75 -67
-68 -33 13 -194 7 -260 -10 -156 -38 -241 -112 -323 -279 -79 -159 -93 -227
-94 -440 -1 -164 15 -318 33 -329 3 -2 6 69 6 157 0 142 3 171 23 232 47 143
124 219 196 195 18 -6 45 -24 61 -40 l27 -29 -22 -30 c-45 -64 -63 -138 -64
-261 -1 -199 62 -389 194 -585 48 -71 196 -245 208 -245 4 0 25 -18 47 -40 63
-62 61 -46 -6 33 -33 39 -81 114 -107 166 -39 78 -47 104 -50 163 -4 65 -3 71
24 99 23 24 36 29 76 29 l48 0 24 -54 c122 -276 489 -521 906 -605 110 -22
190 -34 190 -27 0 2 -24 12 -52 21 -93 31 -212 92 -261 135 -83 73 -99 135
-49 191 l28 32 90 -36 c153 -62 270 -81 489 -81 190 0 295 12 455 50 65 16
320 93 320 97 0 1 -75 2 -167 2 -139 0 -176 3 -215 18 -64 25 -100 68 -96 116
l3 36 85 17 c209 42 492 163 705 302 106 68 387 278 381 283 -2 3 -51 -12
-109 -32 -194 -66 -308 -68 -372 -9 l-29 27 26 21 c14 11 60 48 103 81 88 67
313 286 427 415 153 173 327 375 324 378 -2 1 -50 -17 -107 -42 -126 -54 -230
-86 -274 -86 -42 0 -85 16 -85 31 0 6 31 50 68 97 131 167 304 410 432 607 97
149 208 305 251 352 22 24 39 46 39 50 0 21 -82 45 -157 48 -72 2 -123 17
-123 37 0 4 24 72 54 150 69 183 106 299 166 523 55 205 82 282 111 319 25 32
42 33 81 5 l30 -22 -7 24 c-15 50 -89 217 -123 279 -58 105 -105 171 -180 247
-54 55 -73 81 -78 110 -3 21 -24 128 -45 238 -21 110 -39 217 -39 237 0 47 24
63 63 43 15 -8 27 -11 27 -8 0 12 -99 144 -191 253 -181 216 -416 424 -621
552 -46 28 -141 80 -213 115 -71 34 -125 63 -119 63 7 0 52 -12 100 -26 315
-91 642 -285 984 -582 117 -102 120 -103 35 -8 -89 99 -254 252 -390 362 -143
114 -307 219 -480 304 -285 141 -542 212 -855 236 -82 7 -90 9 -60 16 19 5
112 12 207 15 134 4 198 2 295 -12 231 -32 452 -100 701 -215 81 -37 147 -67
147 -65 0 7 -196 119 -299 170 -253 128 -532 220 -792 260 -199 31 -479 38
-651 17 -38 -5 -68 -5 -68 -1 0 25 286 107 450 128 163 21 528 0 703 -40 74
-17 67 -3 -10 21 -324 102 -565 141 -908 145 -213 3 -300 -2 -475 -30 l-45 -7
25 21 c43 36 171 98 278 135 191 66 421 97 662 89 68 -2 122 -2 119 1 -8 9
-288 54 -403 65 -157 16 -423 13 -561 -4 -129 -17 -266 -49 -385 -90 l-75 -25
50 50 c163 166 445 288 775 335 63 10 117 19 119 21 9 9 -303 3 -400 -7 -394
-40 -757 -185 -1035 -413 -44 -35 -81 -63 -83 -60 -2 2 13 38 33 79 27 54 62
101 124 167 140 146 277 243 497 349 131 64 136 69 30 35z m1245 -4109 c0 -2
-17 -19 -37 -38 l-38 -34 34 38 c33 34 41 42 41 34z m-1527 -544 c-7 -2 -21
-2 -30 0 -10 3 -4 5 12 5 17 0 24 -2 18 -5z m84 -9 c-3 -3 -12 -4 -19 -1 -8 3
-5 6 6 6 11 1 17 -2 13 -5z m1013 -149 c-14 -8 -29 -14 -35 -14 -5 0 1 6 15
14 14 8 30 14 35 14 6 0 -1 -6 -15 -14z m-1307 -152 c-13 -2 -35 -2 -50 0 -16
2 -5 4 22 4 28 0 40 -2 28 -4z"/>
<path d="M7308 7963 c7 -3 16 -2 19 1 4 3 -2 6 -13 5 -11 0 -14 -3 -6 -6z"/>
<path d="M3881 7454 c0 -11 3 -14 6 -6 3 7 2 16 -1 19 -3 4 -6 -2 -5 -13z"/>
<path d="M3872 7410 c0 -14 2 -19 5 -12 2 6 2 18 0 25 -3 6 -5 1 -5 -13z"/>
<path d="M3960 5780 c11 -22 23 -40 25 -40 3 0 -4 18 -15 40 -11 22 -23 40
-25 40 -3 0 4 -18 15 -40z"/>
<path d="M3366 5787 c3 -10 9 -15 12 -12 3 3 0 11 -7 18 -10 9 -11 8 -5 -6z"/>
<path d="M4060 4987 c0 -2 15 -16 33 -33 l32 -29 -29 33 c-28 30 -36 37 -36
29z"/>
<path d="M4158 4899 c14 -19 132 -112 132 -106 0 3 -33 31 -72 63 -40 32 -67
51 -60 43z"/>
<path d="M5026 4715 c17 -7 44 -16 60 -20 25 -4 24 -3 -6 8 -19 8 -46 17 -60
20 -19 5 -17 3 6 -8z"/>
<path d="M5128 4683 c7 -3 16 -2 19 1 4 3 -2 6 -13 5 -11 0 -14 -3 -6 -6z"/>
<path d="M5175 4670 c11 -5 29 -8 40 -8 16 0 15 2 -5 8 -34 11 -60 11 -35 0z"/>
<path d="M6010 4620 c-18 -12 -2 -12 25 0 13 6 15 9 5 9 -8 0 -22 -4 -30 -9z"/>
<path d="M5968 4603 c7 -3 16 -2 19 1 4 3 -2 6 -13 5 -11 0 -14 -3 -6 -6z"/>
<path d="M5928 4593 c7 -3 16 -2 19 1 4 3 -2 6 -13 5 -11 0 -14 -3 -6 -6z"/>
<path d="M5878 4583 c6 -2 18 -2 25 0 6 3 1 5 -13 5 -14 0 -19 -2 -12 -5z"/>
<path d="M5828 4573 c6 -2 18 -2 25 0 6 3 1 5 -13 5 -14 0 -19 -2 -12 -5z"/>
<path d="M5768 4563 c6 -2 18 -2 25 0 6 3 1 5 -13 5 -14 0 -19 -2 -12 -5z"/>
<path d="M5938 4523 c7 -3 16 -2 19 1 4 3 -2 6 -13 5 -11 0 -14 -3 -6 -6z"/>
<path d="M5898 4513 c7 -3 16 -2 19 1 4 3 -2 6 -13 5 -11 0 -14 -3 -6 -6z"/>
<path d="M5838 4503 c6 -2 18 -2 25 0 6 3 1 5 -13 5 -14 0 -19 -2 -12 -5z"/>
<path d="M5178 4453 c7 -3 16 -2 19 1 4 3 -2 6 -13 5 -11 0 -14 -3 -6 -6z"/>
<path d="M5228 4443 c6 -2 18 -2 25 0 6 3 1 5 -13 5 -14 0 -19 -2 -12 -5z"/>
<path d="M5298 4433 c6 -2 18 -2 25 0 6 3 1 5 -13 5 -14 0 -19 -2 -12 -5z"/>
<path d="M5368 4423 c12 -2 30 -2 40 0 9 3 -1 5 -23 4 -22 0 -30 -2 -17 -4z"/>
<path d="M4687 3643 c18 -2 50 -2 70 0 21 2 7 4 -32 4 -38 0 -55 -2 -38 -4z"/>
<path d="M5208 3553 c29 -2 74 -2 100 0 26 2 2 3 -53 3 -55 0 -76 -1 -47 -3z"/>
<path d="M4528 3313 c7 -3 16 -2 19 1 4 3 -2 6 -13 5 -11 0 -14 -3 -6 -6z"/>
</g>
</svg>
