<?xml version="1.0" standalone="no"?>
<!DOCTYPE svg PUBLIC "-//W3C//DTD SVG 20010904//EN"
 "http://www.w3.org/TR/2001/REC-SVG-20010904/DTD/svg10.dtd">
<svg version="1.0" xmlns="http://www.w3.org/2000/svg"
 width="1000.000000pt" height="1000.000000pt" viewBox="0 0 1000.000000 1000.000000"
 preserveAspectRatio="xMidYMid meet">

<g transform="translate(0.000000,1000.000000) scale(0.100000,-0.100000)"
fill="#000000" stroke="none">
<path d="M4952 7048 c-31 -883 -46 -1218 -58 -1290 -9 -54 -20 -98 -24 -98 -4
0 -10 36 -13 79 -5 64 -29 150 -125 443 -449 1378 -637 1947 -640 1944 -2 -2
134 -550 301 -1218 168 -667 307 -1235 311 -1263 l6 -50 -28 50 c-28 50 -1405
2051 -1425 2070 -5 6 -1 -6 10 -25 398 -675 1254 -2134 1267 -2157 24 -48 21
-48 -36 0 -49 41 -1894 1496 -1928 1521 -24 17 -26 18 946 -875 503 -463 913
-843 911 -846 -2 -2 -17 1 -33 8 -193 75 -2268 849 -2270 846 -1 -1 499 -236
1112 -522 613 -285 1114 -523 1114 -527 0 -5 -33 -6 -72 -3 -107 8 -2329 96
-2353 93 -11 -2 501 -65 1139 -142 637 -76 1181 -144 1208 -152 75 -19 78 -30
11 -38 -60 -7 -2283 -638 -2267 -643 5 -2 489 94 1074 213 918 186 1077 216
1155 216 50 0 101 -4 114 -9 22 -9 19 -11 -35 -33 -115 -45 -181 -84 -419
-245 -132 -89 -540 -363 -907 -609 -368 -246 -668 -450 -668 -453 0 -3 19 6
42 20 402 233 1765 994 1811 1011 77 29 188 49 247 44 l45 -3 -126 -107 c-68
-58 -152 -135 -184 -170 -33 -35 -274 -329 -535 -653 -713 -886 -766 -953
-728 -915 20 19 298 316 620 660 687 736 685 734 828 812 75 41 269 122 276
115 16 -16 -129 -280 -261 -477 -21 -30 -61 -104 -90 -165 -44 -92 -598 -1438
-612 -1485 -2 -8 149 291 335 665 378 756 379 759 564 926 136 123 216 206
248 256 33 51 33 50 50 -73 27 -205 7 -389 -60 -549 -4 -11 -15 -36 -23 -55
-50 -119 -99 -266 -117 -352 -12 -58 -122 -1087 -118 -1100 2 -5 28 127 57
294 129 735 136 766 202 881 17 28 33 60 36 69 3 10 8 18 12 18 4 0 15 16 25
35 11 19 23 35 28 35 4 0 8 5 8 11 0 6 6 16 13 24 6 7 21 25 32 41 11 15 25
32 30 38 6 6 16 23 24 39 8 15 18 27 23 27 4 0 8 7 8 15 0 8 5 15 10 15 6 0
10 9 10 20 0 11 4 20 9 20 15 0 43 108 48 182 3 37 0 98 -6 134 -7 37 -10 68
-7 71 2 3 25 -26 49 -64 25 -37 56 -82 69 -100 12 -17 30 -41 38 -53 8 -12 43
-60 78 -106 34 -46 62 -88 62 -93 0 -5 4 -11 8 -13 5 -1 25 -37 46 -79 67
-140 68 -244 1 -444 -106 -317 -112 -407 -45 -777 24 -136 46 -246 48 -243 2
2 -6 95 -19 207 -30 272 -30 390 4 488 38 112 90 219 158 325 39 61 95 170
104 201 5 16 10 36 12 44 11 37 14 135 5 154 -5 11 -17 37 -26 56 -9 19 -22
44 -29 55 -17 28 -106 136 -131 160 -40 37 -181 199 -166 190 8 -5 51 -35 95
-67 98 -69 260 -154 375 -196 81 -29 268 -90 300 -97 8 -2 47 -16 85 -31 89
-36 168 -110 185 -175 23 -84 8 -214 -53 -449 -30 -118 -58 -251 -62 -295 -7
-91 8 -214 31 -253 8 -15 12 -18 9 -7 -4 11 -9 59 -12 106 -9 139 8 202 156
601 65 176 83 252 85 358 1 68 -3 94 -21 132 -24 52 -91 107 -146 121 -61 14
-72 17 -122 27 -27 5 -72 12 -100 16 -27 3 -52 8 -55 9 -3 2 -25 6 -50 10 -55
8 -248 66 -315 95 -65 28 -178 91 -172 96 2 2 29 -7 60 -20 103 -46 204 -67
346 -73 257 -11 404 36 675 216 74 49 154 93 181 101 176 49 333 -164 374
-510 18 -149 20 -200 21 -429 0 -340 13 -275 26 129 9 311 -13 503 -77 676
-69 186 -205 324 -319 324 -69 -1 -115 -28 -242 -146 -125 -117 -187 -159
-298 -205 -194 -79 -455 -73 -640 15 -30 14 -44 24 -30 21 14 -3 54 -12 90
-20 85 -19 248 -19 330 1 161 38 302 143 363 272 28 59 32 78 32 152 0 47 -6
119 -14 160 -17 93 -6 144 46 200 75 84 182 122 327 115 199 -9 394 -105 571
-280 128 -127 208 -240 317 -450 37 -71 68 -125 68 -120 0 26 -145 301 -211
400 -82 123 -225 274 -331 348 -79 57 -211 120 -299 144 -89 25 -283 24 -361
0 -63 -20 -147 -73 -192 -121 -71 -77 -96 -197 -59 -288 25 -61 23 -152 -4
-208 -44 -90 -140 -166 -253 -201 -89 -28 -242 -28 -342 0 -74 20 -214 78
-207 85 2 3 31 -2 64 -10 113 -27 247 -10 320 40 41 28 47 35 68 80 16 34 17
58 11 210 -7 201 4 272 61 389 104 214 312 361 590 418 80 16 292 17 385 0
279 -49 550 -180 834 -404 49 -38 86 -65 82 -59 -4 6 -53 48 -109 93 -345 278
-688 419 -1020 419 -206 0 -360 -37 -515 -124 -206 -115 -342 -296 -412 -551
-50 -181 -58 -204 -86 -241 -58 -76 -154 -93 -286 -49 -69 23 -158 69 -158 81
0 2 20 9 44 15 86 22 127 82 213 314 123 334 270 531 515 696 246 164 519 239
867 239 255 0 413 -25 855 -136 98 -25 180 -43 182 -41 5 5 -425 123 -552 152
-414 93 -789 84 -1103 -27 -295 -104 -525 -280 -746 -570 -132 -173 -233 -275
-278 -282 -95 -14 -117 -16 -117 -6 0 6 31 65 69 133 37 67 83 151 101 187 34
68 104 176 174 270 266 355 665 602 1176 728 69 17 247 54 395 81 149 28 301
59 338 70 65 19 390 161 384 168 -2 1 -77 -24 -166 -58 -198 -73 -259 -88
-516 -129 -529 -83 -746 -143 -1041 -286 -219 -106 -440 -266 -614 -445 -41
-42 -135 -138 -207 -213 -73 -75 -137 -136 -143 -136 -11 0 70 168 128 265 59
98 180 265 248 341 222 250 423 405 907 705 93 57 196 127 230 155 57 46 702
635 737 672 14 15 13 15 -5 1 -11 -9 -200 -158 -420 -331 -445 -350 -444 -349
-710 -508 -394 -235 -576 -371 -810 -605 -118 -119 -145 -149 -249 -277 -43
-54 -80 -98 -82 -98 -16 0 109 233 203 379 97 149 163 235 367 481 94 113 188
228 207 255 20 28 202 331 404 675 202 344 376 641 388 660 52 89 -32 -31
-463 -655 -253 -368 -494 -710 -535 -760 -41 -49 -131 -157 -201 -240 -146
-174 -240 -297 -329 -433 -91 -138 -99 -148 -75 -85 32 85 68 169 148 343 146
319 139 296 393 1309 132 524 239 955 237 957 -2 1 -147 -437 -323 -974 -175
-537 -332 -1008 -347 -1047 -37 -92 -221 -505 -224 -502 -1 1 6 45 17 97 56
270 55 194 13 1423 -21 614 -41 1117 -44 1117 -3 0 -24 -537 -48 -1192z"/>
<path d="M1978 4243 c7 -3 16 -2 19 1 4 3 -2 6 -13 5 -11 0 -14 -3 -6 -6z"/>
<path d="M7797 3709 c4 -13 8 -18 11 -10 2 7 -1 18 -6 23 -8 8 -9 4 -5 -13z"/>
</g>
</svg>
