<?xml version="1.0" standalone="no"?>
<!DOCTYPE svg PUBLIC "-//W3C//DTD SVG 20010904//EN"
 "http://www.w3.org/TR/2001/REC-SVG-20010904/DTD/svg10.dtd">
<svg version="1.0" xmlns="http://www.w3.org/2000/svg"
 width="1000.000000pt" height="1000.000000pt" viewBox="0 0 1000.000000 1000.000000"
 preserveAspectRatio="xMidYMid meet">

<g transform="translate(0.000000,1000.000000) scale(0.100000,-0.100000)"
fill="#000000" stroke="none">
<path d="M4205 9211 c-9 -15 103 -172 207 -290 110 -124 145 -146 293 -180
320 -74 414 -99 528 -137 630 -216 1055 -658 1189 -1238 30 -132 37 -388 13
-528 -80 -481 -402 -870 -841 -1017 -266 -89 -558 -79 -816 29 -298 124 -540
407 -620 726 -31 124 -31 343 0 457 44 162 159 352 267 442 26 22 53 45 59 50
56 50 208 125 306 152 94 26 302 25 388 -1 34 -11 73 -29 85 -41 12 -11 45
-38 74 -58 100 -73 198 -198 217 -279 9 -39 -14 -37 -61 6 -158 141 -328 200
-533 184 -256 -20 -487 -197 -586 -449 -137 -350 3 -766 330 -984 103 -68 176
-101 291 -130 351 -90 712 16 985 286 160 160 270 369 317 606 23 118 23 357
-1 468 -129 593 -580 1020 -1212 1145 -138 28 -414 38 -564 21 -153 -18 -320
-53 -539 -116 -107 -30 -225 -58 -262 -61 l-67 -7 -162 78 c-88 43 -206 102
-261 131 -128 67 -126 66 -144 48 -13 -13 -13 -19 -3 -31 25 -31 347 -237 458
-293 68 -35 103 -28 425 78 386 128 669 171 945 143 384 -39 702 -179 951
-419 155 -148 263 -306 333 -484 232 -591 2 -1237 -529 -1489 -254 -120 -535
-131 -779 -29 -206 86 -382 261 -463 460 -158 392 39 833 422 946 94 27 241
24 331 -8 220 -78 354 -266 342 -479 -11 -191 -152 -342 -332 -356 -127 -11
-240 53 -308 174 -16 29 -34 55 -39 58 -4 3 -16 -9 -25 -26 -13 -26 -15 -47
-10 -97 20 -197 218 -347 466 -353 l55 -1 -50 -11 c-118 -24 -316 35 -421 127
-164 142 -204 394 -89 567 35 54 117 116 177 134 67 20 163 19 227 -2 28 -9
54 -13 58 -9 10 9 -29 57 -67 84 -138 94 -352 57 -492 -84 -62 -63 -99 -124
-130 -214 -30 -85 -32 -245 -4 -335 69 -229 242 -400 481 -475 99 -31 273 -38
386 -16 168 34 312 111 440 236 136 133 219 277 266 460 121 480 -111 997
-569 1262 -528 307 -1201 229 -1740 -200 -125 -100 -212 -186 -373 -372 -171
-196 -235 -259 -283 -279 -31 -13 -42 -11 -160 28 -70 23 -176 60 -237 81 -60
21 -113 37 -117 34 -20 -13 13 -37 110 -79 344 -151 361 -157 393 -146 55 19
107 71 251 249 226 280 385 435 579 564 179 120 416 217 619 254 140 26 403
25 530 -3 467 -103 814 -404 943 -818 74 -237 58 -506 -43 -722 -49 -104 -88
-161 -169 -247 -154 -161 -349 -249 -550 -247 -100 0 -159 11 -152 27 2 5 22
10 45 12 358 22 644 258 737 607 31 114 31 297 1 419 -88 354 -367 623 -751
723 -131 34 -363 43 -501 19 -274 -47 -513 -178 -722 -395 -120 -124 -204
-242 -281 -396 -83 -167 -123 -284 -198 -584 -71 -285 -101 -367 -146 -396
-66 -44 -112 -24 -395 168 -158 107 -204 132 -184 98 6 -10 456 -389 531 -447
22 -18 81 -55 130 -84 129 -76 188 -124 290 -236 50 -55 92 -101 96 -104 3 -3
28 -33 57 -68 75 -91 105 -213 65 -260 -19 -22 -236 -145 -330 -188 -230 -103
-336 -129 -528 -129 -136 0 -159 3 -244 28 -235 70 -499 244 -787 519 -40 37
-80 68 -91 68 -22 0 -43 -18 -43 -37 0 -19 201 -299 308 -429 196 -239 351
-366 512 -420 40 -14 83 -19 160 -18 122 0 216 25 375 99 53 24 93 39 89 33
-4 -6 -84 -61 -178 -123 -569 -374 -959 -553 -1346 -616 -107 -18 -154 -20
-330 -16 -177 4 -226 9 -356 36 -184 37 -394 101 -613 187 -168 66 -201 71
-201 31 0 -17 26 -37 123 -94 664 -392 1097 -473 1602 -299 216 74 384 158
676 337 99 61 183 109 186 106 5 -5 -21 -27 -432 -383 -632 -546 -763 -654
-954 -788 -282 -198 -535 -305 -718 -306 -40 0 -73 -4 -73 -9 0 -5 13 -20 29
-34 45 -37 135 -52 311 -51 139 1 164 3 245 28 204 62 384 169 640 381 127
105 175 150 530 485 143 135 287 271 321 303 58 55 84 69 84 47 0 -6 -22 -43
-49 -83 -357 -530 -448 -1151 -275 -1877 47 -199 146 -555 160 -577 13 -21 59
-41 69 -31 12 12 26 271 35 638 11 453 19 565 55 803 47 304 127 569 244 812
66 136 90 173 109 161 5 -3 12 -65 15 -138 14 -341 118 -587 535 -1265 197
-320 263 -434 336 -582 129 -256 188 -438 208 -641 10 -101 9 -131 -5 -221
-10 -57 -20 -114 -23 -126 -5 -19 -2 -23 15 -23 25 0 40 28 75 135 76 238 74
522 -5 830 -54 209 -130 411 -342 900 -226 525 -300 762 -309 995 -3 71 -2 75
19 78 18 3 32 -13 79 -85 131 -203 306 -387 784 -818 371 -335 611 -574 712
-709 250 -335 310 -647 182 -941 -20 -44 -38 -86 -41 -94 -4 -9 0 -12 13 -9
25 4 112 145 151 244 120 303 69 619 -153 946 -105 154 -254 324 -574 653
-352 362 -475 504 -586 682 -92 147 -69 157 66 30 199 -188 435 -370 910 -702
611 -428 855 -619 1075 -846 214 -220 327 -395 392 -605 24 -80 26 -103 25
-234 0 -80 -2 -161 -4 -180 -3 -31 0 -35 21 -35 20 0 27 9 41 51 78 227 34
478 -127 732 -60 94 -122 171 -228 282 -178 186 -359 340 -850 720 -519 402
-732 591 -898 797 -58 72 -72 102 -39 84 9 -5 62 -51 117 -102 253 -233 489
-419 1272 -1000 312 -232 647 -483 743 -558 629 -488 1013 -865 1212 -1188 59
-96 82 -122 97 -107 12 12 -93 195 -173 301 -94 126 -310 351 -481 502 -214
189 -497 412 -1200 946 -219 166 -469 366 -615 491 -153 131 -414 388 -506
496 -107 128 -193 258 -169 258 3 0 116 -112 252 -248 302 -303 501 -478 823
-723 779 -595 1612 -1056 2369 -1313 160 -55 211 -66 211 -46 0 16 -41 37
-165 84 -467 174 -995 431 -1464 713 -825 496 -1434 1062 -1699 1580 -37 73
-44 95 -35 104 10 10 59 -33 235 -207 467 -461 761 -671 1148 -819 189 -72
374 -110 618 -125 209 -13 400 -2 657 36 136 20 145 23 145 37 -1 38 -10 39
-301 42 -354 3 -538 25 -774 92 -463 132 -826 419 -1149 911 -93 143 -186 305
-186 326 0 7 7 20 16 27 13 11 20 11 43 -3 14 -8 87 -52 161 -98 155 -94 396
-214 520 -260 389 -141 726 -135 1115 21 244 98 815 427 784 453 -2 1 -53 -24
-114 -57 -240 -130 -456 -219 -629 -259 -138 -32 -337 -29 -470 6 -227 59
-462 202 -746 452 -158 140 -177 160 -163 182 15 24 87 21 258 -12 267 -51
423 -67 715 -73 220 -4 303 -2 415 11 587 70 1119 299 1844 795 246 169 299
219 81 78 -887 -577 -1425 -697 -2222 -497 -116 30 -520 160 -600 194 -46 20
-51 49 -10 64 15 5 115 15 222 21 963 56 1659 253 2100 594 183 142 345 339
436 531 39 81 40 109 7 114 -16 2 -32 -13 -70 -67 -166 -235 -369 -414 -601
-530 -188 -93 -385 -144 -667 -172 -216 -21 -1223 7 -1253 35 -23 22 9 43 152
96 384 143 647 279 789 410 106 97 148 179 148 295 1 134 -61 273 -255 570
-75 113 -103 149 -128 160 -18 7 -34 12 -36 10 -2 -2 16 -47 39 -101 77 -180
109 -268 120 -328 33 -184 -88 -297 -489 -456 -144 -58 -182 -84 -302 -215
-126 -138 -336 -342 -385 -375 -46 -30 -42 -24 45 66 119 123 160 173 243 295
57 85 149 257 184 344 79 199 82 406 7 494 -49 59 -116 30 -212 -92 -48 -59
-69 -77 -92 -77 -15 0 -29 64 -50 225 -37 298 -90 487 -200 710 -55 113 -133
242 -167 275 -9 8 7 -19 34 -60 115 -174 202 -365 253 -562 43 -165 60 -296
66 -523 6 -252 8 -259 50 -301 27 -27 34 -43 34 -72 0 -64 -28 -153 -84 -267
-137 -279 -362 -498 -662 -648 -326 -163 -698 -201 -1034 -107 -71 20 -260
103 -260 114 0 3 33 -9 73 -26 111 -47 209 -68 349 -75 107 -5 135 -3 173 11
25 10 43 21 40 26 -3 4 2 13 10 20 8 7 15 19 15 26 0 8 5 14 11 14 6 0 25 7
42 15 18 8 73 28 122 46 225 78 408 186 558 328 120 115 205 231 282 386 104
210 145 391 145 635 0 638 -410 1217 -1067 1504 -136 60 -245 96 -483 159
-309 83 -306 81 -438 211 -63 61 -139 143 -170 181 -79 99 -102 119 -117 96z"/>
</g>
</svg>
